<svg width="195" height="242" viewBox="0 0 195 242" fill="none" xmlns="http://www.w3.org/2000/svg">
<path d="M156.104 0.922852C163.384 -1.04437 165.293 -0.193522 168.092 6.6875C180.073 36.0823 185.434 66.5495 181.86 98.2607C181.304 103.187 180.436 108.075 179.568 112.962C178.8 117.292 178.031 121.622 177.479 125.981C177.118 128.791 177.781 132.101 179.023 134.677C181.023 138.794 183.244 142.804 185.466 146.816L185.468 146.821C187.147 149.853 188.827 152.887 190.412 155.969C196.88 168.537 194.783 182.041 183.931 190.856C163.082 207.789 141.844 224.224 120.538 240.59C118.699 242.009 114.18 242.539 112.815 241.322C111.049 239.758 110.194 235.825 110.714 233.27C111.997 226.916 113.627 220.631 115.258 214.345L115.259 214.34L115.26 214.336C116.077 211.184 116.895 208.032 117.669 204.871C120.705 192.501 117.24 185.087 105.805 179.59C89.2321 171.624 72.6366 163.681 56.0059 155.818C45.547 150.88 37.8298 152.672 30.5713 161.667C24.5534 169.136 18.5928 176.652 12.7471 184.249C10.3694 187.336 7.86702 189.95 3.63574 188.315C-0.105419 186.87 -0.0447922 183.646 0.0146484 180.496V180.472C0.020929 180.145 0.0267035 179.818 0.0283203 179.495L0.223633 141.499H0.270508L0.304688 141.487C0.315234 139.428 0.324803 137.369 0.333984 135.31C0.34368 133.148 0.353138 130.986 0.362305 128.824C0.39805 120.379 0.433497 111.933 0.5 103.491C0.627915 87.6042 10.6405 76.4223 26.459 74.2109C27.5069 74.0644 28.556 73.9209 29.6055 73.7773C35.9566 72.9085 42.3193 72.0384 48.5068 70.4883C51.7253 69.6752 55.0781 67.3072 57.2344 64.7031C83.5046 33.0165 116.358 11.6406 156.104 0.922852ZM93.3467 115.935C93.0916 115.626 92.9732 115.618 92.7031 115.922C89.8353 119.154 86.9526 122.371 84.0732 125.592C78.1774 132.186 72.2798 138.781 66.3857 145.377C66.2848 145.49 66.1324 145.576 66.1094 145.8H66.4609C73.9573 145.8 81.4539 145.798 88.9502 145.808C89.2531 145.808 89.4404 145.693 89.6309 145.489C92.4428 142.486 95.2588 139.488 98.0742 136.488C100.022 134.412 101.973 132.34 103.912 130.256C104.13 130.022 104.244 129.986 104.472 130.249C104.944 130.795 105.457 131.306 105.954 131.83C110.267 136.376 114.581 140.923 118.893 145.472C119.08 145.669 119.255 145.809 119.565 145.809C127.121 145.797 134.676 145.8 142.231 145.797C142.337 145.797 142.468 145.86 142.58 145.681C133.969 135.859 125.35 126.028 116.703 116.166H116.7C116.59 116.286 116.508 116.372 116.432 116.461C112.731 120.822 109.03 125.182 105.339 129.55C105.091 129.843 104.974 129.927 104.679 129.57C100.91 125.018 97.1196 120.483 93.3467 115.935ZM165.801 52.2246C159.044 52.2255 152.288 52.2268 145.531 52.2295C145.498 52.2295 145.463 52.2279 145.43 52.2266C145.261 52.2198 145.092 52.2136 144.958 52.375C144.498 52.9305 144.035 53.4835 143.572 54.0361L143.567 54.042L143.564 54.0449L143.032 54.6797C142.992 54.7219 142.951 54.7632 142.91 54.8047C142.828 54.8877 142.745 54.971 142.67 55.0596L141.907 55.9551L141.899 55.9639L141.896 55.9678C139.387 58.9126 136.878 61.8573 134.372 64.8047C134.108 65.1152 133.84 65.4223 133.572 65.7295C132.961 66.4309 132.349 67.1322 131.784 67.873L131.783 67.875C131.637 67.9644 131.545 68.1019 131.452 68.2393C131.437 68.2624 131.421 68.2856 131.405 68.3086H131.403C131.305 68.3821 131.206 68.4562 131.165 68.5811L131.166 68.583C130.653 69.1817 130.14 69.7805 129.627 70.3789C128.377 71.8372 127.126 73.296 125.879 74.7568C123.047 78.0727 120.218 81.3917 117.391 84.7129C116.453 85.8144 115.519 86.9195 114.585 88.0244L114.584 88.0254L114.579 88.0312L114.578 88.0322C114.117 88.5779 113.656 89.1238 113.194 89.6689V89.6719L113.192 89.6699C113.182 89.6792 113.171 89.6883 113.16 89.6973C113.137 89.7162 113.114 89.7347 113.095 89.7568C112.556 90.3877 112.018 91.0187 111.479 91.6494L111.479 91.6504C109.587 93.8653 107.697 96.0806 105.812 98.3008C105.608 98.5407 105.503 98.6088 105.265 98.3203C104.951 97.9402 104.634 97.5631 104.313 97.1885L103.348 96.0684L103.347 96.0674C103.153 95.844 102.96 95.6203 102.768 95.3965C102.257 94.804 101.746 94.2108 101.236 93.6182C99.574 91.6871 97.9116 89.7563 96.2432 87.8311C96.0053 87.5568 95.7719 87.2787 95.5381 87.001C95.0046 86.3674 94.4704 85.7336 93.8896 85.1416L93.8906 85.1406V85.1396L93.8896 85.1387C93.6519 84.8596 93.4137 84.5798 93.1758 84.3008L93.1729 84.2979V84.2969L93.1719 84.2959C92.3409 83.3212 91.5098 82.3466 90.6826 81.3682C90.5259 81.1839 90.3348 81.1797 90.124 81.1797C87.1157 81.1786 84.1072 81.1764 81.0986 81.1748H81.0967C76.5826 81.1724 72.0685 81.1705 67.5547 81.1699C67.5224 81.1699 67.489 81.1657 67.4551 81.1621C67.3447 81.1504 67.23 81.139 67.1426 81.248L67.1436 81.249H67.1426C67.1462 81.2663 67.1485 81.2852 67.1504 81.3037C67.1544 81.3439 67.158 81.3842 67.1797 81.4102C67.7084 82.0403 68.2393 82.6691 68.7695 83.2979C69.2997 83.9266 69.8297 84.5555 70.3584 85.1855C71.126 86.1002 71.8918 87.0164 72.6572 87.9326C72.9939 88.3357 73.3311 88.7387 73.668 89.1416H73.6689L74.5781 90.2393L74.5801 90.2412C75.5716 91.4388 76.5633 92.6365 77.5586 93.8311C77.9971 94.3575 78.441 94.8794 78.8848 95.4014C79.0667 95.6153 79.2482 95.8297 79.4297 96.0439H79.4316C79.4601 96.0828 79.4886 96.1226 79.5166 96.1621C79.5814 96.2533 79.6464 96.3452 79.7178 96.4307C81.2712 98.2967 82.8259 100.163 84.3828 102.026C84.9589 102.715 85.5375 103.403 86.1152 104.091C86.367 104.39 86.6185 104.691 86.8701 104.99L86.8691 104.991C86.8741 104.998 86.8798 105.005 86.8848 105.013L86.8896 105.021C86.9007 105.037 86.9119 105.054 86.9229 105.07C86.9619 105.129 87.0018 105.189 87.0469 105.243C87.4064 105.675 87.7651 106.108 88.124 106.541C89.1182 107.74 90.113 108.94 91.1221 110.126C91.4706 110.536 91.8097 110.953 92.1484 111.371C92.7331 112.092 93.3185 112.813 93.9531 113.492H93.9541C94.3382 113.957 94.7219 114.422 95.1055 114.888L95.1084 114.891C95.8754 115.821 96.6422 116.751 97.4131 117.679C98.6771 119.199 99.9432 120.718 101.209 122.236L101.21 122.237L101.211 122.239L101.213 122.24L101.215 122.244C102.37 123.63 103.526 125.015 104.68 126.402L104.697 126.424C104.853 126.611 104.931 126.704 105.009 126.705C105.087 126.705 105.166 126.613 105.323 126.428L105.339 126.409C106.069 125.548 106.8 124.686 107.53 123.825L107.533 123.822L107.535 123.818C108.584 122.582 109.634 121.346 110.681 120.107C111.231 119.457 111.776 118.802 112.32 118.146L112.321 118.145C112.557 117.861 112.792 117.578 113.028 117.295L113.161 117.186C113.286 117.069 113.389 116.933 113.493 116.798C113.551 116.722 113.61 116.646 113.672 116.573C116.068 113.762 118.463 110.949 120.855 108.134C123.638 104.859 126.421 101.584 129.194 98.2998C129.367 98.0954 129.543 97.8936 129.72 97.6924C130.163 97.1874 130.605 96.6823 130.987 96.127L130.985 96.125H130.986C131.077 96.0099 131.166 95.8954 131.257 95.7803L131.258 95.7773V95.7812C131.52 95.5918 131.751 95.3751 131.873 95.0654H131.871L131.872 95.0645C131.963 94.9663 132.055 94.8687 132.147 94.7715C132.347 94.5609 132.547 94.3504 132.734 94.1299L132.797 94.0566C135.731 90.6085 138.665 87.1591 141.588 83.7021C141.735 83.5279 141.886 83.356 142.037 83.1846C142.456 82.708 142.876 82.2313 143.221 81.6943L143.222 81.6934C143.307 81.5995 143.392 81.506 143.477 81.4121V81.4131L143.478 81.4121C143.642 81.34 143.728 81.1973 143.814 81.0547C143.82 81.0461 143.825 81.0369 143.83 81.0283C143.837 81.0168 143.844 81.0056 143.852 80.9941L143.853 80.9932C143.861 80.9842 143.871 80.9757 143.88 80.9668C143.889 80.9575 143.899 80.9477 143.908 80.9385C143.922 80.9245 143.937 80.9103 143.951 80.8965C144.024 80.8263 144.096 80.7563 144.161 80.6797C146.662 77.735 149.163 74.7897 151.663 71.8447L151.685 71.8193C152.829 70.4709 153.974 69.1227 155.119 67.7744C156.862 65.7222 158.605 63.6693 160.348 61.6172L160.364 61.5977L160.382 61.5762L160.391 61.5664C162.649 58.9073 164.907 56.2476 167.165 53.5879C167.405 53.3047 167.642 53.0183 167.895 52.7129L167.897 52.71L167.9 52.7061H167.901L167.902 52.7041L167.911 52.6934C168.036 52.5426 168.164 52.3867 168.299 52.2246H165.801Z" fill="#0E354B"/>
</svg>
